<?xml version="1.0" standalone="no"?>
<!DOCTYPE svg PUBLIC "-//W3C//DTD SVG 20010904//EN"
 "http://www.w3.org/TR/2001/REC-SVG-20010904/DTD/svg10.dtd">
<svg version="1.0" xmlns="http://www.w3.org/2000/svg"
 width="512.000000pt" height="512.000000pt" viewBox="0 0 512.000000 512.000000"
 preserveAspectRatio="xMidYMid meet">

<g transform="translate(0.000000,512.000000) scale(0.100000,-0.100000)"
fill="#CB7C2D" stroke="none">
<path d="M2330 5110 c-494 -48 -950 -230 -1350 -538 -195 -150 -448 -432 -594
-662 -63 -99 -186 -351 -230 -471 -49 -134 -102 -340 -128 -499 -31 -195 -31
-565 0 -760 45 -276 116 -498 237 -745 132 -269 269 -460 489 -681 221 -220
412 -357 681 -489 247 -121 469 -192 745 -237 195 -31 565 -31 760 0 276 45
498 116 745 237 269 132 460 269 681 489 220 221 357 412 489 681 88 179 132
296 180 476 63 240 78 371 78 649 0 278 -15 409 -78 649 -48 180 -92 297 -180
476 -132 269 -269 460 -489 681 -221 220 -412 357 -681 489 -246 121 -474 193
-740 235 -147 23 -475 34 -615 20z m283 -1181 c44 -12 101 -59 125 -103 15
-28 17 -84 20 -548 l3 -517 542 -3 c602 -3 571 0 635 -72 28 -33 52 -89 52
-126 0 -37 -24 -93 -52 -126 -64 -72 -33 -69 -635 -72 l-542 -3 -3 -567 c-3
-610 -1 -585 -57 -645 -39 -43 -80 -60 -141 -60 -61 0 -102 17 -141 60 -56 60
-54 35 -57 645 l-3 567 -542 3 c-602 3 -571 0 -635 72 -28 33 -52 89 -52 126
0 37 24 93 52 126 64 72 33 69 635 72 l542 3 3 517 c3 568 1 543 66 605 30 29
91 56 127 57 11 0 37 -5 58 -11z"/>
</g>
</svg>
